/* XPM */
static char *_6e4beb3e3364800c459bffa090025a8qIKgfuEeVlyJmXis[] = {
/* columns rows colors chars-per-pixel */
"100 100 3 1 ",
"  c None",
". c black",
"X c white",
/* pixels */
"                                                                                                    ",
"                                                                                                    ",
"                                                                                                    ",
"                                                                                                    ",
"                                                                                                    ",
"                                                                                                    ",
"                                                                                                    ",
"                                                                                                    ",
"                                                                                                    ",
"                                                                                                    ",
"                                                                                                    ",
"                                                                                                    ",
"                                                                                                    ",
"                                                                                                    ",
"                                                                                                    ",
"                                                                                                    ",
"                                                                                                    ",
"                                                                                                    ",
"                                                                                                    ",
"                                                                                                    ",
"                                                                                                    ",
"                                                                                                    ",
"                                                                                                    ",
"                                                                                                    ",
"                                                                                                    ",
"                                                                                                    ",
"                                                                                                    ",
"                                                                                                    ",
"                                                                                                    ",
"                                                                                                    ",
"                                                                                                    ",
"                                                                                                    ",
"                                          .........                                                 ",
"                                       ...XXXXXXXXX...                                              ",
"                                     ..XXXXXXXXXXXXXXX..                                            ",
"                                   ..XXXXXXXXXXXXXXXXXXX..                                          ",
"                                  .XXXXXXXXXXXXXXXXXXXXXXX.                                         ",
"                                ..XXXXXXXXXXXXXXXXXXXXXXXXX..                                       ",
"                               .XXXXXXXXXXXXXXXXXXXXXXXXXXXXX.                                      ",
"                              .XXXXXXXXXXXXXXXXXXXXXXXXXXXXXXX.                                     ",
"                              .XXXXXXXXXXXXXXXXXXXXXXXXXXXXXXX.                                     ",
"                             .XXXXXXXXXXXXXXXXXXXXXXXXXXXXXXXXX.                                    ",
"                            .XXXXXXXXXXXXXXXXXXXXXXXXXXXXXXXXXXX.                                   ",
"                            .XXXXXXXXXXXXXXXXXXXXXXXXXXXXXXXXXXX.                                   ",
"                           .XXXXXXXXXXXXXXXXXXXXXXXXXXXXXXXXXXXXX.                                  ",
"                           .XXXXXXXXXXXXXXXXXXXXXXXXXXXXXXXXXXXX..                                  ",
"                          .XXXXXXXXXXXXXXXXXXXXXXXXXXXXXXXXXXX..XX.                                 ",
"                          .XXXXXXXXXXXXXXXXXXXXXXXXXXXXXXXXX..XXXX.                                 ",
"                          .XXXXXXXXXXXXXXXXXXXXXXXXXXXXXX...XXXXXX.                                 ",
"                         .XXXXXXXXXXXXXXXXXXXXXXXXXXXXX..XXXXXXXXXX.                                ",
"                         .XXXXXXXXXXXXXXXXXXXXXXXXXX...XXXXXXXXXXXX.                                ",
"                         .XXXXXXXXXXXXXXXXXXXXXXXX..XXXXXXXXXXXXXXX.                                ",
"                         .XXXXXXXXXXXXXXXXXXXXXX..XXXXXXXXXXXXXXXXX.                                ",
"                         .XXXXXXXXXXXXXXXXXXXX..XXXXXXXXXXXXXXXXXXX.                                ",
"                         .XXXXXXXXXXXXXXXXXXXXXXXXXXXXXXXXXXXXXXXXX.                                ",
"                         .XXXXXXXXXXXXXXXXXXXXXXXXXXXXXXXXXXXXXXXXX.                                ",
"                         .XXXXXXXXXXXXXXXXXXXXXXXXXXXXXXXXXXXXXXXXX.                                ",
"                         .XXXXXXXXXXXXXXXXXXXXXXXXXXXXXXXXXXXXXXXXX.                                ",
"                          .XXXXXXXXXXXXXXXXXXXXXXXXXXXXXXXXXXXXXXX.                                 ",
"                          .XXXXXXXXXXXXXXXXXXXXXXXXXXXXXXXXXXXXXXX.                                 ",
"                          .XXXXXXXXXXXXXXXXXXXXXXXXXXXXXXXXXXXXXXX.                                 ",
"                           .XXXXXXXXXXXXXXXXXXXXXXXXXXXXXXXXXXXXX.                                  ",
"                           .XXXXXXXXXXXXXXXXXXXXXXXXXXXXXXXXXXXXX.                                  ",
"                            .XXXXXXXXXXXXXXXXXXXXXXXXXXXXXXXXXXX.                                   ",
"                            .XXXXXXXXXXXXXXXXXXXXXXXXXXXXXXXXXXX.                                   ",
"                             .XXXXXXXXXXXXXXXXXXXXXXXXXXXXXXXXX.                                    ",
"                              .XXXXXXXXXXXXXXXXXXXXXXXXXXXXXXX.                                     ",
"                              .XXXXXXXXXXXXXXXXXXXXXXXXXXXXXXX.                                     ",
"                               .XXXXXXXXXXXXXXXXXXXXXXXXXXXXX.                                      ",
"                                ..XXXXXXXXXXXXXXXXXXXXXXXXX..                                       ",
"                                  .XXXXXXXXXXXXXXXXXXXXXXX.                                         ",
"                                   ..XXXXXXXXXXXXXXXXXXX..                                          ",
"                                     ..XXXXXXXXXXXXXXX..                                            ",
"                                       ...XXXXXXXXX...                                              ",
"                                          .........                                                 ",
"                                                                                                    ",
"                                                                                                    ",
"                                                                                                    ",
"                                                                                                    ",
"                                                                                                    ",
"                                                                                                    ",
"                                                                                                    ",
"                                                                                                    ",
"                                                                                                    ",
"                                                                                                    ",
"                                                                                                    ",
"                                                                                                    ",
"                                                                                                    ",
"                                                                                                    ",
"                                                                                                    ",
"                                                                                                    ",
"                                                                                                    ",
"                                                                                                    ",
"                                                                                                    ",
"                                                                                                    ",
"                                                                                                    ",
"                                                                                                    ",
"                                                                                                    ",
"                                                                                                    ",
"                                                                                                    "
};
